<?xml version="1.0" encoding="utf-8"?>
<!-- Generator: Adobe Illustrator 21.0.2, SVG Export Plug-In . SVG Version: 6.00 Build 0)  -->
<svg version="1.1" id="Layer_1" xmlns="http://www.w3.org/2000/svg" xmlns:xlink="http://www.w3.org/1999/xlink" x="0px" y="0px"
	 viewBox="0 0 208 90.5" style="enable-background:new 0 0 208 90.5;" xml:space="preserve">
<style type="text/css">
	.st0{fill:#2C2E7A;}
</style>
<g>
	<path class="st0" d="M31.4,37.8l3.2-4.5h2.6l0.2,18.9h-2.3c-1.5-5.8-3.6-10.1-6.5-12.7s-6.1-4-9.8-4c-3.1,0-5.6,0.9-7.6,2.8
		c-2,1.9-3,4.1-3,6.8c0,1.7,0.4,3.1,1.1,4.4c0.7,1.3,1.9,2.3,3.4,3.1s4.3,1.6,8.4,2.5c5.8,1.3,9.9,2.5,12.2,3.8
		c2.3,1.3,4.1,2.9,5.2,4.9c1.1,2,1.7,4.2,1.7,6.9c0,4.7-1.6,8.6-4.7,11.7c-3.2,3.1-7.2,4.6-12.2,4.6c-5.4,0-10-1.7-14-5.2l-4,4.9
		H2.8V66.3h2.5c1,5.6,3.2,9.9,6.6,13.1c3.4,3.2,7.3,4.8,11.6,4.8c3.5,0,6.3-1,8.5-3.1c2.2-2.1,3.3-4.5,3.3-7.5
		c0-1.7-0.4-3.1-1.2-4.4c-0.8-1.3-2.1-2.3-3.9-3.2c-1.8-0.9-5.3-1.9-10.5-3.1c-5.7-1.4-9.7-2.9-11.7-4.6C5,56.2,3.5,52.8,3.5,48.4
		c0-4.6,1.5-8.3,4.4-11.2s6.6-4.4,11.2-4.4c2.2,0,4.3,0.4,6.2,1.2S29.3,36,31.4,37.8z"/>
	<path class="st0" d="M127.3,32.8h2.4l1.6,4l1.4,3.7l1.7,4.3l3.3,8.4l0.5,1.4l2.7,6.8l1.7,4.4l-6.3,2.8h-20.6l-2.4,6.3
		c-0.6,1.7-0.9,3-0.9,4c0,1.1,0.5,2.1,1.6,3c1.1,0.8,2.6,1.2,4.7,1.2h1.8v2.6h-18.8v-2.6c2,0,3.6-0.4,4.8-1.3c1.2-0.9,2.2-2.5,3.2-5
		L127.3,32.8z M126.3,42.8L117,66h18.4l-1-2.6l-1-2.6l-1.7-4.3l-1.1-2.7l-0.7-1.9l-1-2.5L126.3,42.8z"/>
	<path class="st0" d="M194.6,38l2.9-5.2h2.4l1.3,20.7h-2.3c-1.8-6-3.8-10.3-6.2-12.9c-3-3.4-6.5-5.1-10.5-5.1c-3,0-5.7,0.9-8.1,2.6
		c-2.4,1.7-4.2,4.3-5.5,7.7c-1.3,3.4-1.9,8.2-1.9,14.4c0,6,0.6,10.7,1.9,14.1c1.3,3.4,3,5.9,5.3,7.5c2.2,1.6,4.9,2.4,7.9,2.4
		c4.1,0,7.3-1.1,9.5-3.4c2.2-2.3,3.4-5.3,3.4-8.9V67c0-0.8-0.3-1.4-0.9-1.8s-1.6-0.6-2.9-0.6h-4.4v-2.5h21.8v2.5h-3
		c-1.3,0-2.3,0.2-2.8,0.7s-0.8,1.1-0.8,2v19.9h-2.3c-0.8-3.1-1.7-6.1-2.6-8.9c-1.8,2.9-3.8,5-6.3,6.5s-5.2,2.2-8.2,2.2
		c-4.4,0-8.4-1.1-12.2-3.4s-6.7-5.4-8.9-9.5c-2.2-4.1-3.3-8.7-3.3-13.9c0-5.2,1.1-9.8,3.3-13.9c2.2-4.1,5.2-7.4,8.9-9.8
		c3.8-2.4,7.6-3.6,11.5-3.6c2.2,0,4.3,0.4,6.3,1.1C189.8,34.6,192.1,36,194.6,38z"/>
</g>
<path class="st0" d="M46.6,34.4H59l31.4,40.9V45.7c0-3-0.7-5.2-2-6.6c-1.2-1.3-3.1-2-5.6-2v-2.6H101V37c-1.9,0-3.3,0.3-4.2,0.8
	c-0.9,0.5-1.7,1.5-2.4,2.8c-0.7,1.4-1,2.8-1,4.5v41.3h-3.3L58.5,45l-0.9-1.2v1.9v4.9v6.7l-3,0V51v-5.3v-5.2l-0.6-0.7
	c-1.2-1.3-2-2-2.5-2.3C50.9,37.2,50,37,49,37h-2.3V34.4z"/>
</svg>
